<?xml version="1.0" encoding="UTF-8"?>
<svg xmlns="http://www.w3.org/2000/svg" xmlns:xlink="http://www.w3.org/1999/xlink" viewBox="0 0 480 480" width="480px" height="480px">
<g id="surface100731013">
<path style=" stroke:none;fill-rule:nonzero;fill:rgb(50.196081%,61.176473%,52.941179%);fill-opacity:1;" d="M 112 64 C 107.90625 64 103.808594 65.558594 100.6875 68.6875 L 68.6875 100.6875 C 62.429688 106.945312 62.429688 117.074219 68.6875 123.3125 L 185.375 240 L 68.6875 356.6875 C 62.429688 362.945312 62.429688 373.074219 68.6875 379.3125 L 100.6875 411.3125 C 106.945312 417.570312 117.074219 417.570312 123.3125 411.3125 L 240 294.625 L 356.6875 411.3125 C 362.925781 417.570312 373.074219 417.570312 379.3125 411.3125 L 411.3125 379.3125 C 417.570312 373.054688 417.570312 362.925781 411.3125 356.6875 L 294.625 240 L 411.3125 123.3125 C 417.570312 117.074219 417.570312 106.925781 411.3125 100.6875 L 379.3125 68.6875 C 373.054688 62.429688 362.925781 62.429688 356.6875 68.6875 L 240 185.375 L 123.3125 68.6875 C 120.183594 65.558594 116.09375 64 112 64 Z M 112 64 "/>
</g>
</svg>
