<?xml version="1.0" encoding="UTF-8"?>
<svg xmlns="http://www.w3.org/2000/svg" xmlns:xlink="http://www.w3.org/1999/xlink" viewBox="0 0 480 480" width="480px" height="480px">
<g id="surface88411305">
<path style=" stroke:none;fill-rule:nonzero;fill:rgb(50.196081%,61.176473%,52.941179%);fill-opacity:1;" d="M 401.921875 111.136719 C 363.136719 79.96875 301.808594 74.6875 299.214844 74.464844 C 295.121094 74.113281 291.230469 76.433594 289.550781 80.175781 C 289.488281 80.304688 286.0625 90.238281 282.753906 99.824219 C 327.824219 107.710938 358.449219 125.214844 360.078125 126.175781 C 367.726562 130.625 370.289062 140.433594 365.824219 148.0625 C 362.863281 153.152344 357.503906 156 352 156 C 349.265625 156 346.511719 155.3125 343.984375 153.839844 C 343.535156 153.566406 298.609375 128 240.03125 128 C 181.441406 128 136.496094 153.582031 136.046875 153.839844 C 128.414062 158.273438 118.625 155.664062 114.191406 148.015625 C 109.761719 140.398438 112.335938 130.625 119.953125 126.175781 C 121.585938 125.214844 152.320312 107.648438 197.519531 99.777344 C 194.03125 90.078125 190.511719 80.304688 190.449219 80.175781 C 188.769531 76.414062 184.878906 74.046875 180.785156 74.464844 C 178.191406 74.671875 116.863281 79.953125 77.566406 111.550781 C 57.023438 130.527344 16 241.472656 16 337.390625 C 16 339.089844 16.433594 340.734375 17.28125 342.207031 C 45.617188 391.96875 122.863281 404.992188 140.464844 405.550781 C 140.574219 405.566406 140.671875 405.566406 140.769531 405.566406 C 143.871094 405.566406 146.800781 404.078125 148.640625 401.566406 L 167.679688 375.777344 C 125.921875 365.710938 103.839844 349.886719 102.511719 348.910156 C 95.40625 343.679688 93.871094 333.664062 99.105469 326.542969 C 104.320312 319.457031 114.304688 317.886719 121.40625 323.089844 C 122 323.472656 162.753906 352 240 352 C 317.550781 352 358.191406 323.359375 358.59375 323.070312 C 365.695312 317.921875 375.710938 319.472656 380.910156 326.609375 C 386.097656 333.710938 384.59375 343.664062 377.519531 348.878906 C 376.191406 349.855469 354.222656 365.648438 312.558594 375.710938 L 331.359375 401.550781 C 333.199219 404.078125 336.128906 405.550781 339.230469 405.550781 C 339.34375 405.550781 339.441406 405.550781 339.535156 405.535156 C 357.152344 404.976562 434.398438 391.953125 462.71875 342.191406 C 463.566406 340.71875 464 339.070312 464 337.375 C 464 241.472656 422.976562 130.527344 401.921875 111.136719 Z M 176 304 C 158.320312 304 144 286.097656 144 264 C 144 241.902344 158.320312 224 176 224 C 193.679688 224 208 241.902344 208 264 C 208 286.097656 193.679688 304 176 304 Z M 304 304 C 286.320312 304 272 286.097656 272 264 C 272 241.902344 286.320312 224 304 224 C 321.679688 224 336 241.902344 336 264 C 336 286.097656 321.679688 304 304 304 Z M 304 304 "/>
</g>
</svg>
