<svg width="158" height="147" viewBox="0 0 158 147" fill="none" xmlns="http://www.w3.org/2000/svg">
<path d="M132 146.655L122 146.654V146.556C122 144.883 123.743 143.526 125.892 143.526H125.892L132 143.526L132 146.655V146.655Z" fill="#2F2E41"/>
<path d="M150 146.655L140 146.654V146.556C140 144.883 141.743 143.526 143.892 143.526H143.892L150 143.526L150 146.655V146.655Z" fill="#2F2E41"/>
<path d="M102.5 15.2553C105.538 15.2553 108 12.6874 108 9.51962C108 6.35189 105.538 3.78394 102.5 3.78394C99.4624 3.78394 97 6.35189 97 9.51962C97 12.6874 99.4624 15.2553 102.5 15.2553Z" fill="#4F795B"/>
<path d="M102.5 46.5409C105.538 46.5409 108 44.4399 108 41.8481C108 39.2563 105.538 37.1553 102.5 37.1553C99.4624 37.1553 97 39.2563 97 41.8481C97 44.4399 99.4624 46.5409 102.5 46.5409Z" fill="#4F795B"/>
<path d="M102.348 44.1714C102.193 44.1716 102.041 44.1317 101.917 44.0577L101.909 44.0531L100.283 43.0671C99.9663 42.8746 99.9064 42.515 100.149 42.2639C100.392 42.0129 100.846 41.9654 101.162 42.1579L102.215 42.7981L104.704 40.2242C104.947 39.9733 105.4 39.9258 105.717 40.1182L105.717 40.1182L105.717 40.1183L105.702 40.1353L105.717 40.1183C106.034 40.311 106.093 40.6702 105.851 40.9213L102.924 43.9474C102.786 44.0887 102.574 44.1713 102.349 44.1707L102.348 44.1714V44.1714Z" fill="white"/>
<path d="M102.5 79.3857C105.538 79.3857 108 77.2846 108 74.6928C108 72.1011 105.538 70 102.5 70C99.4624 70 97 72.1011 97 74.6928C97 77.2846 99.4624 79.3857 102.5 79.3857Z" fill="#4F795B"/>
<path d="M102.348 77.0161C102.193 77.0163 102.041 76.9764 101.917 76.9024L101.909 76.8978L100.283 75.9118C99.9663 75.7193 99.9064 75.3597 100.149 75.1087C100.392 74.8576 100.846 74.8101 101.162 75.0026L102.215 75.6428L104.704 73.069C104.947 72.818 105.4 72.7705 105.717 72.9629L105.717 72.9629L105.717 72.9631L105.702 72.9801L105.717 72.9631C106.034 73.1557 106.093 73.5149 105.851 73.766L102.924 76.7921C102.786 76.9334 102.574 77.016 102.349 77.0155L102.348 77.0161V77.0161Z" fill="white"/>
<path d="M102.348 11.1714C102.193 11.1716 102.041 11.1317 101.917 11.0577L101.909 11.0531L100.283 10.0671C99.9663 9.87458 99.9064 9.51501 100.149 9.26394C100.392 9.01287 100.846 8.96538 101.162 9.15786L102.215 9.7981L104.704 7.22423C104.947 6.97328 105.4 6.9258 105.717 7.1182L105.717 7.11821L105.717 7.11833L105.702 7.13534L105.717 7.11833C106.034 7.31099 106.093 7.67021 105.851 7.92127L102.924 10.9474C102.786 11.0887 102.574 11.1713 102.349 11.1707L102.348 11.1714V11.1714Z" fill="white"/>
<path d="M115.001 90.0711C114.96 88.7349 115.782 87.6093 116.836 87.557C116.949 87.5514 117.062 87.5584 117.173 87.5779L120.257 79.9121L122 83.8002L118.804 90.4837C118.589 91.8003 117.573 92.6474 116.534 92.3756C115.664 92.1482 115.031 91.1955 115.001 90.0711L115.001 90.0711V90.0711Z" fill="#FFB7B7"/>
<path d="M132 144.569L130.645 144.569L130 132.055L132 132.055L132 144.569Z" fill="#FFB7B7"/>
<path d="M150 144.569L148.645 144.569L148 132.055L150 132.055L150 144.569Z" fill="#FFB7B7"/>
<path d="M118.5 83.0408L117 85.5436C117 85.5436 119.5 85.5436 120 89.2979L122 86.795L118.5 83.0408V83.0408Z" fill="#E5E5E5"/>
<path d="M143.778 78.8694C143.778 78.8694 147.333 88.6217 148 94.6588C148.667 100.696 149.778 116.718 149.778 116.718L152 137.383L145.778 138.312L143.111 117.414L137.111 96.7486L135.778 117.414L134.667 136.222L128.889 136.454L128.444 116.95L126 92.1046L127.333 80.2625L143.778 78.8694V78.8694Z" fill="#2F2E41"/>
<path d="M138.889 46.541L141.111 48.3136L144 81.4915L126 81.998L128.445 58.951L130.667 52.366L132.271 49.9491L138.889 46.541Z" fill="#E5E5E5"/>
<path d="M140 69.3257L140.634 47.5837C140.634 47.5837 141.864 47.6938 142.278 48.4149C142.692 49.136 149.525 50.5781 149.525 50.5781L148.282 72.931C148.282 72.931 153.459 90.7172 151.595 91.6786C149.732 92.64 146.419 92.3997 146.419 92.3997L140 69.3257V69.3257Z" fill="#2F2E41"/>
<path d="M127.693 67.1417L130 52.7981L124.865 56.5543L126.17 66.9065L125.082 73.9647C125.082 73.9647 120.95 93.4927 122.255 94.1985C123.56 94.9043 125.082 94.1985 125.082 94.1985L127.693 74.4353V67.1417V67.1417Z" fill="#2F2E41"/>
<path d="M126.878 55.9268L125.105 56.4212L124.345 66.3089L123.079 74.9608L117 85.5901C117 85.5901 120.039 83.6126 121.306 89.298L128 77.9228L126.878 55.9268Z" fill="#2F2E41"/>
<path d="M140.032 88.3055C140.242 86.8684 141.488 85.8869 142.816 86.1132C142.957 86.1373 143.097 86.175 143.232 86.2256L148.581 78.8694L150 83.4853L144.703 89.7632C144.178 91.1111 142.742 91.7431 141.497 91.175C140.455 90.6996 139.849 89.5133 140.032 88.3055V88.3055Z" fill="#FFB7B7"/>
<path d="M149 86.6212L146.857 89.298L144 84.188L145.19 81.998L149 86.6212Z" fill="#E5E5E5"/>
<path d="M148.926 53.7523L151 52.7981C151 52.7981 152.556 54.7066 152.815 56.3765C153.074 58.0464 154.37 60.1935 154.37 61.3863C154.37 62.5791 158 73.7915 158 73.7915L149.704 89.2979C149.704 89.2979 147.889 83.5725 144 83.0953L150.481 74.7457L146.852 68.7817L148.926 53.7523V53.7523Z" fill="#2F2E41"/>
<path d="M85 52.798H0V31.9409H85V52.798Z" fill="white"/>
<path d="M12.8399 37.1553C12.376 37.1553 12 38.0891 12 39.241C12 40.3929 12.376 41.3267 12.8399 41.3267H74.1601C74.624 41.3267 75 40.3929 75 39.241C75 38.0891 74.624 37.1553 74.1601 37.1553H12.8399Z" fill="#4F795B"/>
<path d="M85 52.798H0V31.9409H85V52.798ZM1.39726 51.3082H83.6027V33.4307H1.39726V51.3082Z" fill="#E5E5E5"/>
<path d="M85 83.0409H0V64.2695H85V83.0409Z" fill="white"/>
<path d="M12.8399 68.4409C12.376 68.4409 12 68.9078 12 69.4838C12 70.0597 12.376 70.5266 12.8399 70.5266H74.1601C74.624 70.5266 75 70.0597 75 69.4838C75 68.9078 74.624 68.4409 74.1601 68.4409H12.8399Z" fill="#E6E6E6"/>
<path d="M12.8532 76.7837C12.383 76.7825 12.001 77.2484 12 77.8243C11.999 78.4003 12.3794 78.8682 12.8496 78.8694H52.1486C52.6188 78.8694 53 78.4025 53 77.8265C53 77.2506 52.6188 76.7837 52.1486 76.7837H12.8532V76.7837Z" fill="#E6E6E6"/>
<path d="M85 83.0409H0V64.2695H85V83.0409ZM1.39726 81.7001H83.6027V65.6103H1.39726V81.7001Z" fill="#E5E5E5"/>
<path d="M87 21.5126H0V0.655518H87V21.5126Z" fill="white"/>
<path d="M12.8384 8.99829C12.3745 8.99882 11.9992 9.23269 12 9.52067C12.0008 9.8079 12.3757 10.0406 12.8384 10.0411H74.1616C74.6255 10.0406 75.0009 9.80674 75 9.51877C74.9992 9.23153 74.6243 8.99881 74.1616 8.99829H12.8384V8.99829Z" fill="#4F795B"/>
<path d="M12.8532 11.084C12.383 11.0828 12.001 11.5487 12 12.1246C11.999 12.7006 12.3794 13.1685 12.8496 13.1697H52.1471C52.6173 13.1707 52.9991 12.7047 53 12.1287C53.0009 11.5528 52.6204 11.085 52.1502 11.084C52.1492 11.084 52.1481 11.084 52.1471 11.084H12.8532V11.084Z" fill="#4F795B"/>
<path d="M87 21.5126H0V0.655518H87V21.5126ZM1.43014 20.0228H85.5699V2.14531H1.43014V20.0228Z" fill="#E5E5E5"/>
<path d="M134 48.6268C137.314 48.6268 140 45.8254 140 42.3697C140 38.914 137.314 36.1125 134 36.1125C130.686 36.1125 128 38.914 128 42.3697C128 45.8254 130.686 48.6268 134 48.6268Z" fill="#FFB6B6"/>
<path d="M138.166 46.2036C138.166 46.2036 140.033 42.5648 140 41.1757C139.966 39.7865 138.946 36.2118 138.516 35.9761C138.085 35.7403 133.443 33.4723 132.185 34.1542C130.926 34.8361 128.712 37.1686 126.324 37.7996C125.649 37.9781 126.238 41.3171 126.238 41.3171L129.033 40.9282C129.033 40.9282 131.947 38.4109 132.073 40.125C132.199 41.8391 134.9 41.1252 134.9 41.1252L134.934 42.5143L136.04 42.5716L136.344 41.0932C136.344 41.0932 136.841 44.1072 136.199 45.6748C135.557 47.2425 138.166 46.2036 138.166 46.2036V46.2036Z" fill="#2F2E41"/>
</svg>
