<svg width="75" height="49" viewBox="0 0 75 49" fill="none" xmlns="http://www.w3.org/2000/svg">
<rect x="1" y="1" width="73" height="47" stroke="#5D3427" stroke-width="2"/>
<path d="M14.732 22.216C13.544 22.216 12.506 21.946 11.618 21.406C10.73 20.866 10.04 20.116 9.548 19.156C9.056 18.184 8.81 17.056 8.81 15.772C8.81 14.476 9.062 13.336 9.566 12.352C10.082 11.356 10.808 10.582 11.744 10.03C12.692 9.466 13.814 9.184 15.11 9.184C16.586 9.184 17.81 9.538 18.782 10.246C19.754 10.954 20.384 11.932 20.672 13.18H18.098C17.906 12.592 17.558 12.136 17.054 11.812C16.55 11.476 15.902 11.308 15.11 11.308C13.85 11.308 12.878 11.71 12.194 12.514C11.51 13.306 11.168 14.398 11.168 15.79C11.168 17.182 11.504 18.262 12.176 19.03C12.86 19.786 13.784 20.164 14.948 20.164C16.088 20.164 16.946 19.858 17.522 19.246C18.11 18.622 18.464 17.806 18.584 16.798H15.398V15.07H20.906V22H18.782L18.602 20.344C18.194 20.944 17.684 21.406 17.072 21.73C16.46 22.054 15.68 22.216 14.732 22.216ZM23.1459 22V9.4H27.7719C28.7799 9.4 29.6079 9.574 30.2559 9.922C30.9159 10.258 31.4079 10.72 31.7319 11.308C32.0559 11.884 32.2179 12.526 32.2179 13.234C32.2179 14.002 32.0139 14.704 31.6059 15.34C31.2099 15.976 30.5859 16.438 29.7339 16.726L32.3439 22H29.6979L27.3579 17.032H25.4499V22H23.1459ZM25.4499 15.34H27.6279C28.3959 15.34 28.9599 15.154 29.3199 14.782C29.6799 14.41 29.8599 13.918 29.8599 13.306C29.8599 12.706 29.6799 12.226 29.3199 11.866C28.9719 11.506 28.4019 11.326 27.6099 11.326H25.4499V15.34ZM34.3607 22V9.4H42.5867V11.254H36.6647V14.71H42.0467V16.51H36.6647V20.146H42.5867V22H34.3607ZM44.767 22V9.4H52.993V11.254H47.071V14.71H52.453V16.51H47.071V20.146H52.993V22H44.767ZM55.1732 22V9.4H57.4772L63.3992 18.274V9.4H65.7032V22H63.3992L57.4772 13.144V22H55.1732Z" fill="#125C10"/>
<path d="M14.93 40.216C13.658 40.216 12.566 39.946 11.654 39.406C10.742 38.854 10.04 38.092 9.548 37.12C9.056 36.136 8.81 35.002 8.81 33.718C8.81 32.434 9.056 31.3 9.548 30.316C10.04 29.332 10.742 28.564 11.654 28.012C12.566 27.46 13.658 27.184 14.93 27.184C16.442 27.184 17.678 27.562 18.638 28.318C19.61 29.062 20.216 30.112 20.456 31.468H17.918C17.762 30.784 17.426 30.25 16.91 29.866C16.406 29.47 15.734 29.272 14.894 29.272C13.73 29.272 12.818 29.668 12.158 30.46C11.498 31.252 11.168 32.338 11.168 33.718C11.168 35.098 11.498 36.184 12.158 36.976C12.818 37.756 13.73 38.146 14.894 38.146C15.734 38.146 16.406 37.966 16.91 37.606C17.426 37.234 17.762 36.724 17.918 36.076H20.456C20.216 37.372 19.61 38.386 18.638 39.118C17.678 39.85 16.442 40.216 14.93 40.216ZM22.4955 40V27.4H24.7995V32.638H30.4515V27.4H32.7555V40H30.4515V34.51H24.7995V40H22.4955ZM34.3945 40L39.0025 27.4H41.5945L46.2025 40H43.7545L42.7465 37.084H37.8325L36.8065 40H34.3945ZM38.4625 35.284H42.1165L40.2805 30.046L38.4625 35.284ZM47.8256 40V27.4H50.1296V40H47.8256ZM52.5717 40V27.4H54.8757L60.7977 36.274V27.4H63.1017V40H60.7977L54.8757 31.144V40H52.5717Z" fill="#5D3427"/>
</svg>
