<svg width="18" height="18" viewBox="0 0 18 18" fill="none" xmlns="http://www.w3.org/2000/svg">
<rect width="18" height="18" fill="#E38F8F"/>
<path d="M12.7644 11.9194C13.0769 12.2453 13.0769 12.7732 12.7644 13.0991C12.6094 13.262 12.4044 13.3428 12.1994 13.3428C11.9945 13.3428 11.79 13.2614 11.634 13.0984L8.99969 10.3527L6.36564 13.0978C6.20941 13.262 6.00467 13.3428 5.79994 13.3428C5.5952 13.3428 5.39072 13.262 5.23436 13.0978C4.92188 12.7719 4.92188 12.244 5.23436 11.9181L7.86915 9.17043L5.23436 6.42403C4.92188 6.09817 4.92188 5.57027 5.23436 5.2444C5.54683 4.91853 6.05304 4.91853 6.36552 5.2444L8.99969 7.9934L11.6345 5.2457C11.947 4.91984 12.4532 4.91984 12.7656 5.2457C13.0781 5.57157 13.0781 6.09947 12.7656 6.42534L10.1308 9.17304L12.7644 11.9194Z" fill="#913C3C"/>
</svg>
