<?xml version="1.0" encoding="UTF-8"?>
<svg xmlns="http://www.w3.org/2000/svg" xmlns:xlink="http://www.w3.org/1999/xlink" viewBox="0 0 480 480" width="480px" height="480px">
<g id="surface88552173">
<path style=" stroke:none;fill-rule:nonzero;fill:rgb(50.196081%,61.176473%,52.941179%);fill-opacity:1;" d="M 448 110.992188 C 432.6875 117.792969 416.238281 122.367188 398.976562 124.433594 C 416.609375 113.871094 430.128906 97.152344 436.496094 77.214844 C 420.015625 86.992188 401.742188 94.097656 382.289062 97.9375 C 366.71875 81.34375 344.542969 70.976562 320 70.976562 C 272.863281 70.976562 234.65625 109.199219 234.65625 156.320312 C 234.65625 163.007812 235.425781 169.535156 236.863281 175.761719 C 165.9375 172.207031 103.054688 138.222656 60.945312 86.574219 C 53.617188 99.183594 49.40625 113.839844 49.40625 129.503906 C 49.40625 159.105469 64.464844 185.230469 87.359375 200.527344 C 73.375 200.078125 60.207031 196.238281 48.703125 189.855469 C 48.703125 190.222656 48.703125 190.558594 48.703125 190.929688 C 48.703125 232.289062 78.113281 266.785156 117.167969 274.609375 C 110.015625 276.558594 102.464844 277.601562 94.671875 277.601562 C 89.183594 277.601562 83.824219 277.054688 78.625 276.078125 C 89.488281 309.984375 121.007812 334.671875 158.351562 335.359375 C 129.152344 358.257812 92.351562 371.902344 52.351562 371.902344 C 45.472656 371.902344 38.671875 371.503906 31.984375 370.703125 C 69.761719 394.910156 114.609375 409.039062 162.816406 409.039062 C 319.808594 409.039062 405.632812 278.992188 405.632812 166.207031 C 405.632812 162.511719 405.550781 158.832031 405.390625 155.167969 C 422.078125 143.121094 436.558594 128.097656 448 110.992188 Z M 448 110.992188 "/>
</g>
</svg>
